<svg width="40" height="40" viewBox="0 0 40 40" fill="none" xmlns="http://www.w3.org/2000/svg">
<path d="M20 40C31.0457 40 40 31.0457 40 20C40 8.95431 31.0457 0 20 0C8.95431 0 0 8.95431 0 20C0 31.0457 8.95431 40 20 40Z" fill="white" fill-opacity="0.1"/>
<path d="M20.0001 29.8142C24.7698 29.0842 28.4303 24.7874 28.4303 19.5955C28.4303 14.4036 24.7698 10.1068 20.0001 9.37723V4C27.5939 4.759 33.5328 11.4515 33.5328 19.5955C33.5328 27.7395 27.5939 34.4316 20.0001 35.191V29.8142Z" fill="white"/>
<path d="M13.6119 21.1215L13.729 21L19.7194 21L20.0001 21.1215L9.00006 31L13.6119 21.1215Z" fill="white"/>
<path d="M20.0001 21L13.6119 21L9.00006 10L20.0001 21Z" fill="white"/>
</svg>
